<svg id="OBJECT" xmlns="http://www.w3.org/2000/svg" viewBox="0 0 32 32"><defs><style>.cls-1{fill:#011839;}.cls-2{fill:#7738c8;}</style></defs><path class="cls-1" d="M30,25h-.5V12a1,1,0,0,0-2,0V25H4.5V12a1,1,0,0,0-2,0V25H2a1,1,0,0,0-1,1v4a1,1,0,0,0,1,1H30a1,1,0,0,0,1-1V26A1,1,0,0,0,30,25Zm-1,4H3V27H29Z"/><path class="cls-1" d="M9.5,24h1a1,1,0,0,0,0-2h-1a1,1,0,0,0,0,2Z"/><path class="cls-1" d="M15.5,24h1a1,1,0,0,0,0-2h-1a1,1,0,0,0,0,2Z"/><path class="cls-1" d="M21.5,24h1a1,1,0,0,0,0-2h-1a1,1,0,0,0,0,2Z"/><path class="cls-2" d="M7,12.13a9,9,0,0,0,2.1,5.64L7.91,19a1,1,0,0,0,0,1.41h0a1,1,0,0,0,1.41,0l1.23-1.23a8.91,8.91,0,0,0,10.9,0l1.23,1.23a1,1,0,0,0,1.41,0h0a1,1,0,0,0,0-1.41L22.9,17.77A9,9,0,0,0,15.73,3,9.11,9.11,0,0,0,7,12.13ZM16,8h0a1,1,0,0,1,1,1v2.59l1.71,1.7a1,1,0,0,1,0,1.42h0a1,1,0,0,1-1.42,0l-2-2A1,1,0,0,1,15,12V9A1,1,0,0,1,16,8Z"/><path class="cls-2" d="M26.37,8.37A4.9,4.9,0,0,0,27,6a5,5,0,0,0-5-5,4.9,4.9,0,0,0-2.37.63A11,11,0,0,1,26.37,8.37Z"/><path class="cls-2" d="M12.37,1.63A4.9,4.9,0,0,0,10,1,5,5,0,0,0,5,6a4.9,4.9,0,0,0,.63,2.37A11,11,0,0,1,12.37,1.63Z"/></svg>