<svg xmlns="http://www.w3.org/2000/svg" viewBox="0 0 512 512"><defs><style>.cls-1{fill:#ce404a;}.cls-2{fill:#d06b77;}.cls-3,.cls-4{fill:none;stroke-width:10px;}.cls-3{stroke:#c9dcf1;stroke-miterlimit:10;}.cls-4{stroke:#9cc1e7;stroke-linejoin:round;}.cls-5{fill:#f0c85c;}.cls-6{fill:#efc788;}.cls-7{fill:#deb1cd;}.cls-8{fill:#ecc8dc;}.cls-9{fill:#4e5e9c;}.cls-10{fill:#4c856f;}.cls-11{fill:#40705e;}.cls-12{fill:#2b3060;}.cls-13{fill:#495a89;}.cls-14{fill:#83b3d0;}.cls-15{fill:#91c7ee;}.cls-16{fill:#334079;}.cls-17{fill:#bdddef;}.cls-18{fill:#75baa1;}.cls-19{fill:#62ac8d;}</style></defs><title>Artificial Intelligence</title><g id="BULINE"><circle class="cls-1" cx="256" cy="256" r="256"/></g><g id="Icons"><path class="cls-2" d="M482,167.64a224.41,224.41,0,0,1-11.81,72.08h0A225.5,225.5,0,0,1,387.29,351q-5.18,3.67-10.57,7.07a224.49,224.49,0,0,1-242.9-2.53q-4.37-2.88-8.59-5.95A225.14,225.14,0,0,1,36.77,123.74,257.24,257.24,0,0,1,139.23,28.13q1.41-.73,2.85-1.44h0c1.48-.75,3-1.48,4.49-2.19h0A256.2,256.2,0,0,1,478.86,130,226,226,0,0,1,482,167.64Z"/><line class="cls-3" x1="349.44" y1="155.79" x2="349.44" y2="82.97"/><line class="cls-3" x1="295.02" y1="144.05" x2="295.02" y2="50.16"/><polyline class="cls-4" points="377.36 169.94 411.19 169.94 411.19 91.6"/><polyline class="cls-4" points="394.27 199.4 429.88 199.4 477.75 247.27"/><circle class="cls-3" cx="349.44" cy="71.33" r="13.69"/><circle class="cls-4" cx="486.07" cy="256.37" r="13.69"/><rect class="cls-5" x="392.27" y="66.14" width="37.76" height="37.76" rx="7.53" transform="translate(822.3 170.05) rotate(-180)"/><rect class="cls-6" x="276.14" y="19.88" width="37.76" height="37.76" rx="7.53" transform="translate(590.04 77.52) rotate(-180)"/><line class="cls-3" x1="169.11" y1="155.79" x2="169.11" y2="82.97"/><line class="cls-3" x1="223.53" y1="144.05" x2="223.53" y2="50.16"/><polyline class="cls-4" points="141.19 169.94 107.36 169.94 107.36 91.6"/><path class="cls-7" d="M396.15,200.47a47,47,0,0,1-39.77,46.45,47.88,47.88,0,0,1-7.23.55,46.91,46.91,0,0,1-37.43-18.59,47,47,0,0,1-51.45,4.44,47,47,0,0,1-60.89.23,47,47,0,1,1-43.14-76.25,47,47,0,0,1,61.13-36.22,47,47,0,0,1,81.44.88,47,47,0,0,1,56,31.86A47,47,0,0,1,396.15,200.47Z"/><path class="cls-8" d="M396.15,200.47a46.94,46.94,0,0,1-21.95,39.77c-.47-.55-.92-1.12-1.36-1.69A47,47,0,0,1,321.39,243a46.94,46.94,0,0,1-60.88.22A47,47,0,1,1,217.37,167a47,47,0,0,1,61.12-36.23,47.38,47.38,0,0,1,15.42-15.87,47,47,0,0,1,4.9,7.09,47,47,0,0,1,56,31.86A47,47,0,0,1,396.15,200.47Z"/><polygon class="cls-9" points="470.18 333.7 419.31 328.97 419.31 353.7 470.18 348.97 470.18 333.7"/><path class="cls-10" d="M453,341.33a22.46,22.46,0,1,1,14.79,21.13A22.51,22.51,0,0,1,453,341.33Z"/><ellipse class="cls-11" cx="467.81" cy="341.33" rx="14.79" ry="21.13"/><polygon class="cls-9" points="37.8 348.96 88.67 353.69 88.67 328.96 37.8 333.69 37.8 348.96"/><path class="cls-12" d="M109.81,305.4h24a0,0,0,0,1,0,0v72.13a0,0,0,0,1,0,0h-24A28.83,28.83,0,0,1,81,348.7V334.24A28.83,28.83,0,0,1,109.81,305.4Z"/><path class="cls-12" d="M405.56,305.4h24a0,0,0,0,1,0,0v72.13a0,0,0,0,1,0,0h-24a28.83,28.83,0,0,1-28.83-28.83V334.24a28.83,28.83,0,0,1,28.83-28.83Z" transform="translate(806.28 682.94) rotate(180)"/><path class="cls-13" d="M408.37,256.33a151.69,151.69,0,0,1-8.11,49.07q-1.71,5.06-3.77,9.94a126.05,126.05,0,0,0-9.91,49v.27q0,6.57-.64,13a130.23,130.23,0,0,1-259.17,0q-.63-6.39-.64-13v-.26A129.25,129.25,0,0,0,116,314.68q-1.9-4.56-3.51-9.28a151.92,151.92,0,0,1-8.1-49,153.85,153.85,0,0,1,4.74-38.13h294.5A152.23,152.23,0,0,1,408.37,256.33Z"/><path class="cls-9" d="M408.37,256.33a151.69,151.69,0,0,1-8.11,49.07q-1.71,5.06-3.77,9.94a126.05,126.05,0,0,0-9.91,49v.27q0,6.57-.64,13a130.25,130.25,0,0,1-107.55,115.4,130,130,0,0,1-79.3-46.58c-1.37-1.68-2.68-3.39-4-5.14a129.73,129.73,0,0,1-24.94-76.65v-.26c0-.57,0-1.15,0-1.72A129.5,129.5,0,0,0,160,314.68a152,152,0,0,1-11.6-58.24,153.38,153.38,0,0,1,4.74-38.13H403.58A152.23,152.23,0,0,1,408.37,256.33Z"/><path class="cls-14" d="M301.23,217.89l-.05,1.1a43.85,43.85,0,0,1-43.78,40.86h-2.09A43.9,43.9,0,0,1,211.53,219l-.05-1.1Z"/><path class="cls-15" d="M301.23,217.89l-.05,1.1a43.91,43.91,0,0,1-26.63,37.38A43.89,43.89,0,0,1,247.91,219l0-1.1Z"/><rect class="cls-16" x="148.41" y="265.94" width="218.85" height="96.64" rx="18.18"/><circle class="cls-15" cx="196.32" cy="314.26" r="27.21"/><circle class="cls-17" cx="196.32" cy="314.26" r="14.7"/><circle class="cls-15" cx="319.94" cy="314.26" r="27.21"/><circle class="cls-17" cx="319.94" cy="314.26" r="14.7"/><path class="cls-10" d="M334.64,415.4v24.38a6.58,6.58,0,0,1-6.59,6.58H184.5a6.59,6.59,0,0,1-6.59-6.58V415.4a6.59,6.59,0,0,1,6.59-6.58H328.05A6.58,6.58,0,0,1,334.64,415.4Z"/><rect class="cls-18" x="195.14" y="408.82" width="14.7" height="37.54"/><rect class="cls-18" x="222.34" y="408.82" width="14.7" height="37.54"/><rect class="cls-18" x="275.28" y="408.82" width="14.7" height="37.54"/><rect class="cls-18" x="302.49" y="408.82" width="14.7" height="37.54"/><rect class="cls-18" x="248.93" y="408.82" width="14.7" height="37.54"/><path class="cls-10" d="M55,341.33A22.45,22.45,0,1,1,40.17,320.2,22.5,22.5,0,0,1,55,341.33Z"/><ellipse class="cls-11" cx="40.17" cy="341.33" rx="14.79" ry="21.13"/><path class="cls-12" d="M217.61,265.94h79.26a0,0,0,0,1,0,0v3.27A17.84,17.84,0,0,1,279,287.05H235.46a17.84,17.84,0,0,1-17.84-17.84v-3.27A0,0,0,0,1,217.61,265.94Z"/><path class="cls-7" d="M291.33,137.94a28.53,28.53,0,0,1,2.31-1.87,27.94,27.94,0,0,1,34.88,43.58l-.13.12a4.09,4.09,0,0,1-6.68-3.68A27.92,27.92,0,0,0,294.16,145,4.09,4.09,0,0,1,291.33,137.94Z"/><path class="cls-7" d="M257,203.41c-.39.52-.8,1-1.25,1.52a18.55,18.55,0,0,1-28.52-23.66l.08-.09a2.71,2.71,0,0,1,4.83,1.49,18.53,18.53,0,0,0,22.07,16.51A2.71,2.71,0,0,1,257,203.41Z"/><path class="cls-7" d="M351.31,174c.42-.49.88-1,1.36-1.42a18.55,18.55,0,0,1,26.61,25.79l-.08.09a2.71,2.71,0,0,1-4.71-1.86,18.53,18.53,0,0,0-20.73-18.17A2.71,2.71,0,0,1,351.31,174Z"/><polyline class="cls-4" points="124.28 199.4 88.67 199.4 40.79 247.27"/><circle class="cls-3" cx="169.11" cy="71.33" r="13.69"/><circle class="cls-4" cx="32.48" cy="256.37" r="13.69"/><rect class="cls-16" x="88.52" y="66.14" width="37.76" height="37.76" rx="7.53"/><rect class="cls-19" x="204.65" y="19.88" width="37.76" height="37.76" rx="7.53"/></g></svg>