<svg id="OBJECT" xmlns="http://www.w3.org/2000/svg" viewBox="0 0 32 32"><defs><style>.cls-1{fill:#011839;}.cls-2{fill:#7738c8;}</style></defs><path class="cls-1" d="M16,1A15,15,0,0,0,1,16V28a3,3,0,0,0,3,3H5a3,3,0,0,0,3-3V22a3,3,0,0,0-3-3H3V16a13,13,0,0,1,26,0v3H27a3,3,0,0,0-3,3v6a3,3,0,0,0,3,3h1a3,3,0,0,0,3-3V16A15,15,0,0,0,16,1ZM6,22v6a1,1,0,0,1-1,1H4a1,1,0,0,1-1-1V21H5A1,1,0,0,1,6,22Zm23,6a1,1,0,0,1-1,1H27a1,1,0,0,1-1-1V22a1,1,0,0,1,1-1h2Z"/><path class="cls-2" d="M9.5,9V21a2,2,0,0,0,2,2h2V7h-2A2,2,0,0,0,9.5,9Z"/><path class="cls-2" d="M15.5,23h7V7h-7Zm3-13h1a1,1,0,0,1,1,1h0a1,1,0,0,1-1,1h-1a1,1,0,0,1-1-1h0A1,1,0,0,1,18.5,10Zm0,3h1a1,1,0,0,1,1,1h0a1,1,0,0,1-1,1h-1a1,1,0,0,1-1-1h0A1,1,0,0,1,18.5,13Z"/></svg>