<svg xmlns="http://www.w3.org/2000/svg" viewBox="0 0 512 512"><defs><style>.cls-1{fill:#334079;}.cls-2,.cls-3,.cls-4,.cls-5{fill:none;stroke-linecap:round;stroke-linejoin:round;stroke-width:10px;}.cls-2{stroke:#eeefb1;}.cls-3{stroke:#d9e175;}.cls-4{stroke:#d6db53;}.cls-5{stroke:#e9e639;}.cls-6{fill:#8cc080;}.cls-7{fill:#b7c9da;}.cls-8{fill:#c9dcf1;}.cls-9{fill:#da8ab2;}.cls-10{fill:#dca1c3;}.cls-11{fill:#b6799a;}.cls-12{fill:#7aa36d;}.cls-13{fill:#678a5d;}</style></defs><title>Artificial Intelligence</title><g id="BULINE"><circle class="cls-1" cx="253.95" cy="252.82" r="256"/></g><g id="Icons"><polyline class="cls-2" points="313.43 357.16 359.82 357.16 392.67 390.01"/><polyline class="cls-3" points="321.93 311.83 416.39 311.83 441.56 336.99"/><circle class="cls-2" cx="404.86" cy="403.16" r="16"/><circle class="cls-3" cx="455.15" cy="348.49" r="16"/><circle class="cls-2" cx="484.15" cy="252.82" r="16"/><line class="cls-2" x1="353.39" y1="252.82" x2="468.15" y2="252.82"/><polyline class="cls-4" points="201.27 357.16 154.88 357.16 122.03 390.01"/><polyline class="cls-3" points="190.35 311.83 95.89 311.83 70.72 336.99"/><circle class="cls-4" cx="109.83" cy="403.16" r="16"/><circle class="cls-3" cx="57.13" cy="348.49" r="16"/><circle class="cls-5" cx="25.13" cy="252.82" r="16"/><line class="cls-5" x1="155.89" y1="252.82" x2="41.13" y2="252.82"/><path class="cls-6" d="M197.26,385.82H315.14a0,0,0,0,1,0,0v52.1a15.57,15.57,0,0,1-15.57,15.57H212.83a15.57,15.57,0,0,1-15.57-15.57v-52.1A0,0,0,0,1,197.26,385.82Z"/><path class="cls-7" d="M401.2,191.84a144.54,144.54,0,0,1-39.93,99.93,144.35,144.35,0,0,0-38.64,86.45,12.61,12.61,0,0,1-12.53,11.61H202.31a12.62,12.62,0,0,1-12.54-11.65C187.16,346.52,174,315.42,152,292.66A145,145,0,1,1,401.2,191.84Z"/><path class="cls-8" d="M401.2,191.84a144.54,144.54,0,0,1-39.93,99.93,144.35,144.35,0,0,0-38.64,86.45,12.61,12.61,0,0,1-12.53,11.61H264.76a12.62,12.62,0,0,1-12.54-11.65c-2.61-31.66-15.76-62.76-37.78-85.52A145,145,0,0,1,287.38,50.21,145.05,145.05,0,0,1,401.2,191.84Z"/><path class="cls-9" d="M223.6,78.38A25.66,25.66,0,0,1,249.26,104a26.94,26.94,0,0,1-.4,4.52h.4V286.17a25.66,25.66,0,0,1-51.32,0,26,26,0,0,1,.4-4.53,25.25,25.25,0,0,1-8-1.14,25.63,25.63,0,0,1-17-32.07c.15-.51.34-1,.52-1.53a19.73,19.73,0,0,1-18.89-19.72,19.34,19.34,0,0,1,.18-2.65,33.61,33.61,0,0,1-1.84-58.3c.58-.36,1.17-.7,1.78-1a19.74,19.74,0,0,1,18.77-21.9c-.18-.51-.37-1-.52-1.53a25.65,25.65,0,0,1,24.92-33.21,26,26,0,0,1-.4-4.53A25.66,25.66,0,0,1,223.6,78.38Z"/><path class="cls-10" d="M223.6,78.38A25.66,25.66,0,0,1,249.26,104a26.94,26.94,0,0,1-.4,4.52h.4V272.5a25.67,25.67,0,0,1-36.4-23.31,26,26,0,0,1,.41-4.53,25.35,25.35,0,0,1-8-1.14,25.65,25.65,0,0,1-17-32.07c.16-.51.34-1,.53-1.53A19.74,19.74,0,0,1,170,190.2a19.33,19.33,0,0,1,.19-2.65,33.62,33.62,0,0,1-16.77-21.32c.58-.36,1.17-.7,1.78-1a19.74,19.74,0,0,1,18.77-21.9c-.18-.51-.37-1-.52-1.53a25.65,25.65,0,0,1,24.92-33.21,26,26,0,0,1-.4-4.53A25.66,25.66,0,0,1,223.6,78.38Z"/><path class="cls-11" d="M152.06,202.62a1.08,1.08,0,0,1-1.71,1.21l0,0a18.87,18.87,0,0,1,25.18-28.1l.22.2a1.08,1.08,0,0,1-1,1.83,18.88,18.88,0,0,0-22.62,24.89Z"/><path class="cls-11" d="M208.75,208.16a1.08,1.08,0,0,1-.44,2.05h0a18.87,18.87,0,0,1-.54-37.73H208a1.08,1.08,0,0,1,.47,2.05,18.88,18.88,0,0,0,.26,33.63Z"/><path class="cls-11" d="M214.41,118.47a1.08,1.08,0,0,1-1.71,1.21l0,0a18.87,18.87,0,0,1,25.18-28.1l.22.2a1.08,1.08,0,0,1-1,1.83,18.88,18.88,0,0,0-22.62,24.89Z"/><path class="cls-11" d="M201.47,268.69a.73.73,0,0,1-.89,1.1h0A12.71,12.71,0,0,1,211.74,247l.18.09a.73.73,0,0,1-.34,1.38,12.71,12.71,0,0,0-10.11,20.27Z"/><path class="cls-11" d="M223.29,199.76a.73.73,0,0,1-.52-1.32h0a12.71,12.71,0,0,1,14.27,21l-.17.11a.73.73,0,0,1-1-1,12.71,12.71,0,0,0-12.59-18.83Z"/><path class="cls-11" d="M193.05,134.1a.73.73,0,0,1-.51-1.32h0a12.71,12.71,0,0,1,14.27,21l-.17.12a.73.73,0,0,1-1-1,12.71,12.71,0,0,0-12.59-18.84Z"/><path class="cls-11" d="M239.27,290.54a1,1,0,0,1,1.34,1.47l0,0a17.83,17.83,0,0,1-29.19-20.48c.05-.07.1-.15.16-.22a1,1,0,0,1,1.83.77,17.84,17.84,0,0,0,25.89,18.43Z"/><path class="cls-11" d="M178.78,234.85a.73.73,0,0,1,.29,1.39h0a12.71,12.71,0,0,1-10.45-23.17l.18-.08a.73.73,0,0,1,.84,1.14,12.71,12.71,0,0,0,9.17,20.71Z"/><path class="cls-10" d="M287.69,78.38A25.66,25.66,0,0,0,262,104a25.93,25.93,0,0,0,.4,4.52H262V286.17a25.66,25.66,0,1,0,51.32,0,25.11,25.11,0,0,0-.41-4.53,25.27,25.27,0,0,0,8-1.14,25.65,25.65,0,0,0,17-32.07c-.16-.51-.34-1-.53-1.53a19.73,19.73,0,0,0,18.9-19.72,21.06,21.06,0,0,0-.18-2.65,33.61,33.61,0,0,0,1.84-58.3c-.58-.36-1.18-.7-1.78-1,.07-.72.12-1.44.12-2.18a19.73,19.73,0,0,0-18.9-19.72c.19-.51.37-1,.53-1.53a25.65,25.65,0,0,0-24.93-33.21,25,25,0,0,0,.41-4.53A25.66,25.66,0,0,0,287.69,78.38Z"/><path class="cls-9" d="M287.69,78.38A25.66,25.66,0,0,0,262,104a25.93,25.93,0,0,0,.4,4.52H262V272.5a25.66,25.66,0,0,0,36.39-23.31,25,25,0,0,0-.41-4.53,25.37,25.37,0,0,0,8-1.14,25.64,25.64,0,0,0,17-32.07c-.16-.51-.34-1-.53-1.53a19.73,19.73,0,0,0,18.9-19.72,21.06,21.06,0,0,0-.18-2.65,33.65,33.65,0,0,0,16.77-21.32c-.58-.36-1.18-.7-1.78-1,.07-.72.12-1.44.12-2.18a19.73,19.73,0,0,0-18.9-19.72c.19-.51.37-1,.53-1.53a25.65,25.65,0,0,0-24.93-33.21,25,25,0,0,0,.41-4.53A25.66,25.66,0,0,0,287.69,78.38Z"/><path class="cls-11" d="M359.22,202.62a1.08,1.08,0,0,0,1.72,1.21l0,0a18.87,18.87,0,0,0-25.18-28.1l-.22.2a1.08,1.08,0,0,0,1,1.83,18.87,18.87,0,0,1,22.61,24.89Z"/><path class="cls-11" d="M302.54,208.16a1.08,1.08,0,0,0,.43,2.05h0a18.87,18.87,0,0,0,.54-37.73h-.29a1.08,1.08,0,0,0-.48,2.05,18.87,18.87,0,0,1-.25,33.63Z"/><path class="cls-11" d="M296.87,118.47a1.08,1.08,0,0,0,1.71,1.21l0,0a18.87,18.87,0,0,0-25.19-28.1l-.21.2a1.08,1.08,0,0,0,1,1.83,18.87,18.87,0,0,1,22.61,24.89Z"/><path class="cls-11" d="M309.82,268.69a.72.72,0,0,0,.88,1.1h0A12.71,12.71,0,0,0,299.54,247l-.17.09a.73.73,0,0,0,.34,1.38,12.71,12.71,0,0,1,10.11,20.27Z"/><path class="cls-11" d="M288,199.76a.73.73,0,0,0,.51-1.32h0a12.71,12.71,0,0,0-14.27,21l.16.11a.73.73,0,0,0,1-1A12.71,12.71,0,0,1,288,199.76Z"/><path class="cls-11" d="M318.23,134.1a.73.73,0,0,0,.52-1.32h0a12.7,12.7,0,0,0-14.26,21l.16.12a.73.73,0,0,0,1-1,12.71,12.71,0,0,1,12.58-18.84Z"/><path class="cls-11" d="M272,290.54a1,1,0,0,0-1.33,1.47l0,0a17.83,17.83,0,0,0,29.19-20.48l-.16-.22a1,1,0,0,0-1.83.77A17.84,17.84,0,0,1,272,290.54Z"/><path class="cls-11" d="M332.5,234.85a.73.73,0,0,0-.28,1.39h0a12.71,12.71,0,0,0,10.45-23.17l-.18-.08a.73.73,0,0,0-.84,1.14,12.71,12.71,0,0,1-9.18,20.71Z"/><rect class="cls-12" x="184.63" y="407.74" width="143.13" height="23.83" rx="11.92"/><path class="cls-13" d="M218.59,453.49h75.22a0,0,0,0,1,0,0v0a22.33,22.33,0,0,1-22.33,22.33H240.92a22.33,22.33,0,0,1-22.33-22.33v0a0,0,0,0,1,0,0Z"/></g></svg>