<svg id="OBJECT" xmlns="http://www.w3.org/2000/svg" viewBox="0 0 32 32"><defs><style>.cls-1{fill:#7738c8;}.cls-2{fill:#011839;}</style></defs><path class="cls-1" d="M22.9,17.26a1.93,1.93,0,0,0-1.57-1.32l-2.48-.36-1.11-2.25a1.94,1.94,0,0,0-3.48,0l-1.11,2.25-2.48.36a1.95,1.95,0,0,0-1.08,3.32L11.38,21,11,23.48a1.94,1.94,0,0,0,1.91,2.27,2,2,0,0,0,.91-.22L16,24.36l2.22,1.17A1.94,1.94,0,0,0,21,23.48L20.62,21l1.79-1.75A1.93,1.93,0,0,0,22.9,17.26Z"/><path class="cls-2" d="M30.87,1.51A1,1,0,0,0,30,1H20.93a1,1,0,0,0-.84.45L16.47,7,16,7l-.47,0L11.91,1.45A1,1,0,0,0,11.07,1H2a1,1,0,0,0-.87.51,1,1,0,0,0,0,1l5.51,9a12,12,0,1,0,18.68,0l5.51-9A1,1,0,0,0,30.87,1.51ZM21.47,3h2L20.41,7.85a12.55,12.55,0,0,0-1.74-.54ZM13.33,7.31a12.55,12.55,0,0,0-1.74.54L8.53,3h2ZM6.17,3,9.79,8.75A12.18,12.18,0,0,0,8.09,10L3.79,3ZM16,29A10,10,0,1,1,26,19,10,10,0,0,1,16,29Zm7.91-19a12.18,12.18,0,0,0-1.7-1.25L25.83,3h2.38Z"/></svg>