<svg id="OBJECT" width="24" height="24" xmlns="http://www.w3.org/2000/svg" viewBox="0 0 32 32"><defs><style>.cls-1{fill:#011839;}.cls-2{fill:#7738c8;}</style></defs><path class="cls-1" d="M30,8H27.5a1,1,0,0,0,0,2H29V21H3V10H4.5a1,1,0,0,0,0-2H2A1,1,0,0,0,1,9V26a1,1,0,0,0,1,1h8v2H7a1,1,0,0,0,0,2H25a1,1,0,0,0,0-2H22V27h8a1,1,0,0,0,1-1V9A1,1,0,0,0,30,8ZM20,29H12V27h8ZM3,25V23H29v2Z"/><path class="cls-1" d="M9.5,19h1a1,1,0,0,0,0-2h-1a1,1,0,0,0,0,2Z"/><path class="cls-1" d="M15.5,19h1a1,1,0,0,0,0-2h-1a1,1,0,0,0,0,2Z"/><path class="cls-1" d="M21.5,19h1a1,1,0,0,0,0-2h-1a1,1,0,0,0,0,2Z"/><path class="cls-2" d="M11.5,2a1,1,0,0,0-1-1h-3a1,1,0,0,0-1,1v8h5Z"/><path class="cls-2" d="M7.5,15h3a1,1,0,0,0,1-1V12h-5v2A1,1,0,0,0,7.5,15Z"/><path class="cls-2" d="M14.5,15h3a1,1,0,0,0,1-1V6h-5v8A1,1,0,0,0,14.5,15Z"/><path class="cls-2" d="M18.5,2a1,1,0,0,0-1-1h-3a1,1,0,0,0-1,1V4h5Z"/><path class="cls-2" d="M25.5,2a1,1,0,0,0-1-1h-3a1,1,0,0,0-1,1v8h5Z"/><path class="cls-2" d="M21.5,15h3a1,1,0,0,0,1-1V12h-5v2A1,1,0,0,0,21.5,15Z"/></svg>