<svg id="OBJECT" xmlns="http://www.w3.org/2000/svg" viewBox="0 0 32 32"><defs><style>.cls-1{fill:#011839;}.cls-2{fill:#7738c8;}</style></defs><path class="cls-1" d="M19,6H13a3,3,0,0,0-3,3V25a1,1,0,0,0,1.51.86L16,23.17l4.49,2.69A1,1,0,0,0,21,26a1,1,0,0,0,.49-.13A1,1,0,0,0,22,25V9A3,3,0,0,0,19,6Zm1,17.23-3.49-2.09a1,1,0,0,0-1,0L12,23.23V9a1,1,0,0,1,1-1h6a1,1,0,0,1,1,1Z"/><path class="cls-1" d="M17,10H15a1,1,0,0,0,0,2h2a1,1,0,0,0,0-2Z"/><path class="cls-1" d="M17,14H15a1,1,0,0,0,0,2h2a1,1,0,0,0,0-2Z"/><path class="cls-2" d="M26,9a4.3,4.3,0,0,0-1.94.47H24v11h.06A4.3,4.3,0,0,0,26,21c2.76,0,5-2.69,5-6S28.76,9,26,9Zm1.77,7.35a1,1,0,0,1-.93.65,1,1,0,0,1-.35-.06,1,1,0,0,1-.59-1.29,2.16,2.16,0,0,0,0-1.3,1,1,0,0,1,.59-1.29,1,1,0,0,1,1.28.59,4.08,4.08,0,0,1,0,2.7Z"/><path class="cls-2" d="M6,9c-2.76,0-5,2.69-5,6s2.24,6,5,6a4.3,4.3,0,0,0,1.94-.47H8v-11H7.94A4.3,4.3,0,0,0,6,9Zm.1,6.65a1,1,0,0,1-.59,1.29,1,1,0,0,1-.35.06,1,1,0,0,1-.93-.65,4.08,4.08,0,0,1,0-2.7,1,1,0,0,1,1.28-.59,1,1,0,0,1,.59,1.29,2.16,2.16,0,0,0,0,1.3Z"/></svg>