<svg id="OBJECT" xmlns="http://www.w3.org/2000/svg" viewBox="0 0 32 32"><defs><style>.cls-1{fill:#011839;}.cls-2{fill:#7738c8;}</style></defs><path class="cls-1" d="M16,5a1,1,0,0,0,0,2,1.12,1.12,0,0,1,1.08.81,1,1,0,0,0,1,.72,1,1,0,0,0,.28,0A1,1,0,0,0,19,7.25,3.15,3.15,0,0,0,16,5Z"/><path class="cls-1" d="M26.94,8.88h-.22a4.52,4.52,0,0,0-4.15-3.49,7.11,7.11,0,0,0-13.14,0A4.52,4.52,0,0,0,5.28,8.88H5.06A4.06,4.06,0,0,0,1,12.94a4,4,0,0,0,1.34,3,1,1,0,1,0,1.32-1.5A2,2,0,0,1,3,12.94a2.06,2.06,0,0,1,2.06-2.06H6.17a1,1,0,0,0,1-1,2.5,2.5,0,0,1,2.5-2.5l.32,0a1,1,0,0,0,1.09-.71,5.12,5.12,0,0,1,9.84,0A1,1,0,0,0,22,7.41a1.43,1.43,0,0,1,.29,0,2.5,2.5,0,0,1,2.5,2.5,1,1,0,0,0,1,1h1.11A2.06,2.06,0,0,1,29,12.94a2,2,0,0,1-.66,1.5,1,1,0,0,0-.09,1.41,1,1,0,0,0,1.41.09,4,4,0,0,0,1.34-3A4.06,4.06,0,0,0,26.94,8.88Z"/><path class="cls-2" d="M7,12.47a1,1,0,0,0-1,1v15a1,1,0,0,0,1,1h4.19a5,5,0,0,1,2.78.84L15,31V13a3.91,3.91,0,0,0-2-.56Zm4.5,13h-1a1,1,0,0,1-1-1h0a1,1,0,0,1,1-1h1a1,1,0,0,1,1,1h0A1,1,0,0,1,11.5,25.47Zm0-3h-2a1,1,0,0,1-1-1h0a1,1,0,0,1,1-1h2a1,1,0,0,1,1,1h0A1,1,0,0,1,11.5,22.47Zm0-3h-2a1,1,0,0,1-1-1h0a1,1,0,0,1,1-1h2a1,1,0,0,1,1,1h0A1,1,0,0,1,11.5,19.47Z"/><path class="cls-2" d="M25,12.47H19A3.91,3.91,0,0,0,17,13V31l1-.69a5,5,0,0,1,2.78-.84H25a1,1,0,0,0,1-1v-15A1,1,0,0,0,25,12.47Zm-3.5,13h-1a1,1,0,0,1-1-1h0a1,1,0,0,1,1-1h1a1,1,0,0,1,1,1h0A1,1,0,0,1,21.5,25.47Zm1-3h-2a1,1,0,0,1-1-1h0a1,1,0,0,1,1-1h2a1,1,0,0,1,1,1h0A1,1,0,0,1,22.5,22.47Zm0-3h-2a1,1,0,0,1-1-1h0a1,1,0,0,1,1-1h2a1,1,0,0,1,1,1h0A1,1,0,0,1,22.5,19.47Z"/></svg>