<svg id="OBJECT" xmlns="http://www.w3.org/2000/svg" viewBox="0 0 32 32"><defs><style>.cls-1{fill:#011839;}.cls-2{fill:#7738c8;}</style></defs><path class="cls-1" d="M30,15H20V14a1,1,0,0,0-2,0v1H14V14a1,1,0,0,0-2,0v1H2a1,1,0,0,0-1,1V30a1,1,0,0,0,2,0V28H19v2a1,1,0,0,0,1,1H30a1,1,0,0,0,1-1V16A1,1,0,0,0,30,15ZM3,17H29v1H3Zm0,9V20H19v6Zm18,3V20h8v9Z"/><path class="cls-1" d="M27,22.5a1,1,0,0,0-1,1v2a1,1,0,0,0,2,0v-2A1,1,0,0,0,27,22.5Z"/><path class="cls-2" d="M7,11H25a1,1,0,0,0,1-1V2a1,1,0,0,0-1-1H7A1,1,0,0,0,6,2v8A1,1,0,0,0,7,11ZM22.5,3H23a1,1,0,0,1,1,1h0a1,1,0,0,1-1,1h-.5a1,1,0,0,1-1-1h0A1,1,0,0,1,22.5,3Zm-4,0H19a1,1,0,0,1,1,1h0a1,1,0,0,1-1,1h-.5a1,1,0,0,1-1-1h0A1,1,0,0,1,18.5,3Z"/></svg>