<svg id="OBJECT" xmlns="http://www.w3.org/2000/svg" viewBox="0 0 32 32"><defs><style>.cls-1{fill:#011839;}.cls-2{fill:#7738c8;}</style></defs><path class="cls-1" d="M25.5,10.5a9.5,9.5,0,1,0-15,7.74V21H10a1,1,0,0,0,0,2H22a1,1,0,0,0,0-2h-.5V18.24A9.47,9.47,0,0,0,25.5,10.5ZM12.5,21V17.7a1,1,0,0,0-.47-.85,7.5,7.5,0,1,1,7.94,0,1,1,0,0,0-.47.85V21Z"/><path class="cls-1" d="M30,10H28a1,1,0,0,0,0,2h2a1,1,0,0,0,0-2Z"/><path class="cls-1" d="M27,7.5a1,1,0,0,0,.5-.13l1.73-1a1,1,0,0,0-1-1.74l-1.73,1A1,1,0,0,0,27,7.5Z"/><path class="cls-1" d="M29.23,15.63l-1.73-1a1,1,0,0,0-1,1.74l1.73,1a1,1,0,1,0,1-1.74Z"/><path class="cls-1" d="M5,11a1,1,0,0,0-1-1H2a1,1,0,0,0,0,2H4A1,1,0,0,0,5,11Z"/><path class="cls-1" d="M5.5,5.63l-1.73-1a1,1,0,1,0-1,1.74l1.73,1a1,1,0,0,0,1-1.74Z"/><path class="cls-1" d="M4.5,14.63l-1.73,1a1,1,0,0,0,1,1.74l1.73-1a1,1,0,1,0-1-1.74Z"/><path class="cls-2" d="M12.5,26a3,3,0,0,0,1.13,2.34L15,29.48V30a1,1,0,0,0,1,1h0a1,1,0,0,0,1-1v-.52l1.37-1.1A3,3,0,0,0,19.5,26V25h-7Z"/><path class="cls-2" d="M15.17,13.75a1,1,0,0,1-.72-.31l-1.67-1.76a1,1,0,0,1,1.44-1.38l.95,1,2.61-2.74a1,1,0,1,1,1.44,1.38l-3.32,3.5A1,1,0,0,1,15.17,13.75Z"/></svg>