<svg id="OBJECT" xmlns="http://www.w3.org/2000/svg" viewBox="0 0 32 32"><defs><style>.cls-1{fill:#011839;}.cls-2{fill:#7738c8;}</style></defs><path class="cls-1" d="M30,25h-.5V12a1,1,0,0,0-1-1H27a1,1,0,0,0,0,2h.5V25H4.5V13H5a1,1,0,0,0,0-2H3.5a1,1,0,0,0-1,1V25H2a1,1,0,0,0-1,1v4a1,1,0,0,0,1,1H30a1,1,0,0,0,1-1V26A1,1,0,0,0,30,25Zm-1,4H3V27H29Z"/><path class="cls-2" d="M10.5,21H23a1,1,0,0,0,1-1V15H10.5A2.5,2.5,0,0,0,8,17.5v1A2.5,2.5,0,0,0,10.5,21Z"/><path class="cls-2" d="M24,13V2a1,1,0,0,0-1-1H11A3,3,0,0,0,8,4v9.76A4.49,4.49,0,0,1,10.5,13ZM13.29,7.29a1,1,0,0,1,1.42,0l.29.3V5a1,1,0,0,1,1-1h0a1,1,0,0,1,1,1V7.59l.29-.3a1,1,0,0,1,1.42,0h0a1,1,0,0,1,0,1.42l-2,2a1,1,0,0,1-1.42,0l-2-2a1,1,0,0,1,0-1.42Z"/></svg>