<svg id="OBJECT" xmlns="http://www.w3.org/2000/svg" viewBox="0 0 32 32"><defs><style>.cls-1{fill:#011839;}.cls-2{fill:#7738c8;}</style></defs><path class="cls-1" d="M21,1H4A3,3,0,0,0,1,4V22.5a1,1,0,0,0,2,0V4A1,1,0,0,1,4,3H20V21a1,1,0,0,0,2,0V2A1,1,0,0,0,21,1Z"/><path class="cls-1" d="M16,7H8A1,1,0,0,0,8,9h8a1,1,0,0,0,0-2Z"/><path class="cls-1" d="M16,12H13a1,1,0,0,0,0,2h3a1,1,0,0,0,0-2Z"/><path class="cls-1" d="M9,12H8a1,1,0,0,0,0,2H9a1,1,0,0,0,0-2Z"/><path class="cls-2" d="M29.29,23.29,28,24.59l-1.29-1.3a1,1,0,0,0-1.42,1.42l2,2a1,1,0,0,0,1.42,0l2-2a1,1,0,0,0-1.42-1.42Z"/><path class="cls-2" d="M26.71,8.71,28,7.41l1.29,1.3a1,1,0,0,0,1.42,0,1,1,0,0,0,0-1.42l-2-2a1,1,0,0,0-1.42,0l-2,2a1,1,0,0,0,1.42,1.42Z"/><path class="cls-2" d="M27,11.5v9a1,1,0,0,0,2,0v-9a1,1,0,0,0-2,0Z"/><path class="cls-2" d="M1,27.5v1A2.5,2.5,0,0,0,3.5,31H21a1,1,0,0,0,1-1V25H3.5A2.5,2.5,0,0,0,1,27.5Z"/></svg>