<svg id="OBJECT" xmlns="http://www.w3.org/2000/svg" viewBox="0 0 32 32"><defs><style>.cls-1{fill:#011839;}.cls-2{fill:#7738c8;}</style></defs><path class="cls-1" d="M30,25h-.5V12a1,1,0,0,0-1-1h-2a1,1,0,0,0,0,2h1V25H4.5V13h1a1,1,0,0,0,0-2h-2a1,1,0,0,0-1,1V25H2a1,1,0,0,0-1,1v4a1,1,0,0,0,1,1H30a1,1,0,0,0,1-1V26A1,1,0,0,0,30,25Zm-1,4H3V27H29Z"/><path class="cls-1" d="M22,22h2a1,1,0,0,0,0-2H22a1,1,0,0,0,0,2Z"/><path class="cls-1" d="M8,22h2a1,1,0,0,0,0-2H8a1,1,0,0,0,0,2Z"/><path class="cls-2" d="M14.66,14.68,8.5,11.6V14a1,1,0,0,0,.58.91l6.5,3a1,1,0,0,0,.84,0l6.5-3A1,1,0,0,0,23.5,14V11.6l-6.16,3.08a3,3,0,0,1-2.68,0Z"/><path class="cls-2" d="M5.55,7.89l10,5a1,1,0,0,0,.9,0l10-5a1,1,0,0,0,0-1.78l-10-5a1,1,0,0,0-.9,0l-10,5a1,1,0,0,0,0,1.78Z"/></svg>