<svg id="OBJECT" xmlns="http://www.w3.org/2000/svg" viewBox="0 0 32 32"><defs><style>.cls-1{fill:#011839;}.cls-2{fill:#7738c8;}</style></defs><path class="cls-1" d="M6.46,18.84l3.73,2.38L8.3,23.33a1,1,0,0,0,.08,1.41A1,1,0,0,0,9,25a1,1,0,0,0,.75-.33l2.11-2.36,3.56,2.27a1,1,0,0,0,1.08,0l3.56-2.27,2.11,2.36A1,1,0,0,0,23,25a1,1,0,0,0,.66-.26,1,1,0,0,0,.08-1.41l-1.89-2.11,3.73-2.38a1,1,0,0,0-1.08-1.68L16,22.55,7.54,17.16a1,1,0,0,0-1.08,1.68Z"/><path class="cls-1" d="M30,11H27.06a1,1,0,0,0,0,2H29V29H3V13H4.94a1,1,0,1,0,0-2H2a1,1,0,0,0-1,1V30a1,1,0,0,0,1,1H30a1,1,0,0,0,1-1V12A1,1,0,0,0,30,11Z"/><path class="cls-2" d="M16,18A8.5,8.5,0,1,0,7.5,9.5,8.51,8.51,0,0,0,16,18Zm-1.5-6.5H15v-4h-.5a1,1,0,0,1-1-1h0a1,1,0,0,1,1-1H16a1,1,0,0,1,1,1v5h.5a1,1,0,0,1,1,1h0a1,1,0,0,1-1,1h-3a1,1,0,0,1-1-1h0A1,1,0,0,1,14.5,11.5Z"/></svg>