<svg id="OBJECT" xmlns="http://www.w3.org/2000/svg" viewBox="0 0 32 32"><defs><style>.cls-1{fill:#011839;}.cls-2{fill:#7738c8;}</style></defs><path class="cls-1" d="M30,1H2A1,1,0,0,0,1,2V30a1,1,0,0,0,1,1H30a1,1,0,0,0,1-1V2A1,1,0,0,0,30,1ZM29,3V7H3V3ZM3,29V9H29V29Z"/><path class="cls-1" d="M21,6h1a1,1,0,0,0,0-2H21a1,1,0,0,0,0,2Z"/><path class="cls-1" d="M26,6h1a1,1,0,0,0,0-2H26a1,1,0,0,0,0,2Z"/><rect class="cls-2" x="13.5" y="15.5" width="5" height="7"/><path class="cls-2" d="M17,12a1,1,0,0,0-2,0v1.5h2Z"/><path class="cls-2" d="M15,26a1,1,0,0,0,2,0V24.5H15Z"/><path class="cls-2" d="M26.5,17.5h-5v7H23V26a1,1,0,0,0,2,0V24.5h1.5Z"/><path class="cls-2" d="M25,12a1,1,0,0,0-2,0v3.5h2Z"/><path class="cls-2" d="M5.5,24.5H7V26a1,1,0,0,0,2,0V24.5h1.5v-7h-5Z"/><path class="cls-2" d="M9,12a1,1,0,0,0-2,0v3.5H9Z"/></svg>