<svg id="OBJECT" xmlns="http://www.w3.org/2000/svg" viewBox="0 0 32 32"><defs><style>.cls-1{fill:#011839;}.cls-2{fill:#7738c8;}</style></defs><path class="cls-1" d="M23,1H13a1,1,0,0,0-.71.29l-6,6A1,1,0,0,0,6,8V27a1,1,0,0,0,1,1H8.26a1,1,0,0,0,0-2H8V9h5a1,1,0,0,0,1-1V3h8V14.11a1,1,0,0,0,2,0V2A1,1,0,0,0,23,1ZM9.41,7,12,4.41V7Z"/><path class="cls-1" d="M19,11H15a1,1,0,0,0,0,2h4a1,1,0,0,0,0-2Z"/><path class="cls-1" d="M11.5,11H11a1,1,0,0,0,0,2h.5a1,1,0,0,0,0-2Z"/><path class="cls-2" d="M18,15a8,8,0,1,0,8,8A8,8,0,0,0,18,15Zm2.71,8.21a1,1,0,0,1-1.42,0l-.29-.3V25.5a1,1,0,0,1-1,1h0a1,1,0,0,1-1-1V22.91l-.29.3a1,1,0,0,1-1.42,0h0a1,1,0,0,1,0-1.42l2-2a1,1,0,0,1,1.42,0l2,2a1,1,0,0,1,0,1.42Z"/></svg>