<svg id="OBJECT" xmlns="http://www.w3.org/2000/svg" viewBox="0 0 32 32"><defs><style>.cls-1{fill:#011839;}.cls-2{fill:#7738c8;}</style></defs><path class="cls-1" d="M30,8H29a1,1,0,0,0,0,2V21H3V10A1,1,0,0,0,3,8H2A1,1,0,0,0,1,9V26a1,1,0,0,0,1,1h8v2H7a1,1,0,0,0,0,2H25a1,1,0,0,0,0-2H22V27h8a1,1,0,0,0,1-1V9A1,1,0,0,0,30,8ZM20,29H12V27h8ZM3,25V23H29v2Z"/><path class="cls-2" d="M13.71,5.29,15.41,7H24V2a1,1,0,0,0-1-1H9A1,1,0,0,0,8,2V5h5A1,1,0,0,1,13.71,5.29ZM18,3h3a1,1,0,0,1,1,1h0a1,1,0,0,1-1,1H18a1,1,0,0,1-1-1h0A1,1,0,0,1,18,3Z"/><path class="cls-2" d="M7,17H25a1,1,0,0,0,1-1V9H15a1,1,0,0,1-.71-.29L12.59,7H6v9A1,1,0,0,0,7,17Zm6-4h.5a1,1,0,0,1,1,1h0a1,1,0,0,1-1,1H13a1,1,0,0,1-1-1h0A1,1,0,0,1,13,13ZM8,14a1,1,0,0,1,1-1h.5a1,1,0,0,1,1,1h0a1,1,0,0,1-1,1H9a1,1,0,0,1-1-1Z"/></svg>