<svg id="OBJECT" xmlns="http://www.w3.org/2000/svg" viewBox="0 0 32 32"><defs><style>.cls-1{fill:#011839;}.cls-2{fill:#7738c8;}</style></defs><path class="cls-1" d="M31,8a1,1,0,0,0-.61-.92l-14-6a1,1,0,0,0-.78,0l-14,6a1,1,0,0,0,0,1.84L5,10.37v4.45a1,1,0,0,0,.65.94l10,3.79a.91.91,0,0,0,.7,0l10-3.79a1,1,0,0,0,.65-.94V10.37l2-.85V14a1,1,0,0,0,2,0Zm-6,6.13-9,3.42L7,14.13v-2.9l8.61,3.69a1,1,0,0,0,.78,0L25,11.23Zm-9-1.22L4.54,8,16,3.09,27.46,8Z"/><path class="cls-2" d="M16,21.62a3,3,0,0,1-1.07-.2L12,20.31c0,1,.06,1.84.14,2.68a58.19,58.19,0,0,0,7.7,0c.08-.84.13-1.73.14-2.68l-2.93,1.11A2.93,2.93,0,0,1,16,21.62Z"/><path class="cls-2" d="M12.43,25c.54,2.95,1.51,5,2.48,5.92a9.93,9.93,0,0,0,2.18,0c1-.92,1.94-3,2.48-5.92-1.19.07-2.38.12-3.57.12S13.62,25.09,12.43,25Z"/><path class="cls-2" d="M10,20c0-.15,0-.3,0-.45L5.24,17.74A10.5,10.5,0,0,0,5,20a10.66,10.66,0,0,0,.21,2.12c1.64.3,3.28.55,4.93.72C10.05,21.9,10,20.94,10,20Z"/><path class="cls-2" d="M20,30.24a11.1,11.1,0,0,0,6.14-6c-1.51.25-3,.45-4.53.59A19.35,19.35,0,0,1,20,30.24Z"/><path class="cls-2" d="M5.86,24.27a11.1,11.1,0,0,0,6.14,6,19.35,19.35,0,0,1-1.61-5.38C8.88,24.72,7.37,24.52,5.86,24.27Z"/><path class="cls-2" d="M26.76,17.74,22,19.55c0,.15,0,.3,0,.45,0,.95-.05,1.9-.14,2.84,1.65-.17,3.29-.42,4.93-.72a10.78,10.78,0,0,0,0-4.38Z"/></svg>