<svg id="OBJECT" xmlns="http://www.w3.org/2000/svg" viewBox="0 0 32 32"><defs><style>.cls-1{fill:#011839;}.cls-2{fill:#7738c8;}</style></defs><path class="cls-1" d="M30,8H26V2a1,1,0,0,0-1-1H7A1,1,0,0,0,6,2V8H2A1,1,0,0,0,1,9V26a1,1,0,0,0,1,1h8v2H7a1,1,0,0,0,0,2H25a1,1,0,0,0,0-2H22V27h8a1,1,0,0,0,1-1V9A1,1,0,0,0,30,8Zm-1,2V21H26V10ZM8,3H24V21H8ZM6,10V21H3V10ZM20,29H12V27h8ZM3,25V23H29v2Z"/><path class="cls-2" d="M20.5,12.5a4.48,4.48,0,0,0-1-2.75,4.46,4.46,0,0,1-7.08,0,4.48,4.48,0,0,0-1,2.75A2.5,2.5,0,0,0,14,15h4A2.5,2.5,0,0,0,20.5,12.5Z"/><circle class="cls-2" cx="16" cy="7" r="2.5"/><path class="cls-2" d="M20,17H16a1,1,0,0,0,0,2h4a1,1,0,0,0,0-2Z"/><path class="cls-2" d="M12.5,17H12a1,1,0,0,0,0,2h.5a1,1,0,0,0,0-2Z"/></svg>