<svg id="OBJECT" xmlns="http://www.w3.org/2000/svg" viewBox="0 0 32 32"><defs><style>.cls-1{fill:#011839;}.cls-2{fill:#7738c8;}</style></defs><path class="cls-1" d="M30,25h-.5V12a1,1,0,0,0-1-1H26.31a1,1,0,0,0,0,2H27.5V25H4.5V13H5.69a1,1,0,1,0,0-2H3.5a1,1,0,0,0-1,1V25H2a1,1,0,0,0-1,1v4a1,1,0,0,0,1,1H30a1,1,0,0,0,1-1V26A1,1,0,0,0,30,25Zm-1,4H3V27H29Z"/><path class="cls-1" d="M13,23h6a1,1,0,0,0,0-2H13a1,1,0,0,0,0,2Z"/><path class="cls-2" d="M11,15.24V17H10a1,1,0,0,0-1,1H9a1,1,0,0,0,1,1H22a1,1,0,0,0,1-1h0a1,1,0,0,0-1-1H21V15.24a8,8,0,1,0-10,0ZM14.23,8.3l.94,1,2.6-2.74a1,1,0,0,1,1.42,0h0a1,1,0,0,1,0,1.41l-3.32,3.5a1,1,0,0,1-1.45,0L12.78,9.68a1,1,0,0,1,0-1.41h0A1,1,0,0,1,14.23,8.3Z"/></svg>