<svg id="OBJECT" xmlns="http://www.w3.org/2000/svg" viewBox="0 0 32 32"><defs><style>.cls-1{fill:#011839;}.cls-2{fill:#7738c8;}</style></defs><path class="cls-1" d="M30,25h-.5V12a1,1,0,0,0-2,0V25H4.5V12a1,1,0,0,0-2,0V25H2a1,1,0,0,0-1,1v4a1,1,0,0,0,1,1H30a1,1,0,0,0,1-1V26A1,1,0,0,0,30,25Zm-1,4H3V27H29Z"/><path class="cls-2" d="M23,1H9A1,1,0,0,0,8,2V7H24V2A1,1,0,0,0,23,1ZM17,5h-.5a1,1,0,0,1-1-1h0a1,1,0,0,1,1-1H17a1,1,0,0,1,1,1h0A1,1,0,0,1,17,5Zm4,0h-.5a1,1,0,0,1-1-1h0a1,1,0,0,1,1-1H21a1,1,0,0,1,1,1h0A1,1,0,0,1,21,5Z"/><path class="cls-2" d="M24,9H8V23H24Zm-8,1h0a1,1,0,0,1,1,1v.5a1,1,0,0,1-1,1h0a1,1,0,0,1-1-1V11A1,1,0,0,1,16,10Zm1.5,12h-3a1,1,0,0,1-1-1h0a1,1,0,0,1,1-1H15V16h-.5a1,1,0,0,1-1-1h0a1,1,0,0,1,1-1H16a1,1,0,0,1,1,1v5h.5a1,1,0,0,1,1,1h0A1,1,0,0,1,17.5,22Z"/></svg>