<svg id="OBJECT" xmlns="http://www.w3.org/2000/svg" viewBox="0 0 32 32"><defs><style>.cls-1{fill:#011839;}.cls-2{fill:#7738c8;}</style></defs><path class="cls-1" d="M30,18H2a1,1,0,0,0-1,1V30a1,1,0,0,0,1,1H30a1,1,0,0,0,1-1V19A1,1,0,0,0,30,18ZM29,29H3V20H29Z"/><path class="cls-1" d="M6,23.5H7a1,1,0,0,0,0-2H6a1,1,0,0,0,0,2Z"/><path class="cls-1" d="M12.33,23.5h1a1,1,0,0,0,0-2h-1a1,1,0,1,0,0,2Z"/><path class="cls-1" d="M18.67,23.5h1a1,1,0,0,0,0-2h-1a1,1,0,0,0,0,2Z"/><path class="cls-1" d="M25,23.5h1a1,1,0,0,0,0-2H25a1,1,0,0,0,0,2Z"/><path class="cls-1" d="M6,27.5H7a1,1,0,0,0,0-2H6a1,1,0,0,0,0,2Z"/><path class="cls-1" d="M25,27.5h1a1,1,0,0,0,0-2H25a1,1,0,0,0,0,2Z"/><path class="cls-1" d="M12.33,27.5h7.34a1,1,0,0,0,0-2H12.33a1,1,0,1,0,0,2Z"/><path class="cls-2" d="M20.81,14H26a1,1,0,0,0,1-1V2a1,1,0,0,0-1-1H19a4,4,0,0,0-2,.56v14l1-.69A5,5,0,0,1,20.81,14ZM21,4.5h2a1,1,0,0,1,1,1h0a1,1,0,0,1-1,1H21a1,1,0,0,1-1-1h0A1,1,0,0,1,21,4.5Zm0,4h2a1,1,0,0,1,1,1h0a1,1,0,0,1-1,1H21a1,1,0,0,1-1-1h0A1,1,0,0,1,21,8.5Z"/><path class="cls-2" d="M6,14h5.19a5,5,0,0,1,2.78.84l1,.69v-14A4,4,0,0,0,13,1H6A1,1,0,0,0,5,2V13A1,1,0,0,0,6,14ZM9,4.5h2a1,1,0,0,1,1,1h0a1,1,0,0,1-1,1H9a1,1,0,0,1-1-1H8A1,1,0,0,1,9,4.5Zm0,4h2a1,1,0,0,1,1,1h0a1,1,0,0,1-1,1H9a1,1,0,0,1-1-1H8A1,1,0,0,1,9,8.5Z"/></svg>