<svg id="OBJECT" xmlns="http://www.w3.org/2000/svg" viewBox="0 0 32 32"><defs><style>.cls-1{fill:#011839;}.cls-2{fill:#7738c8;}</style></defs><path class="cls-1" d="M30,5H27V2a1,1,0,0,0-1-1H2A1,1,0,0,0,1,2V26a1,1,0,0,0,1,1H5v3a1,1,0,0,0,1,1H30a1,1,0,0,0,1-1V6A1,1,0,0,0,30,5ZM29,7v4H27V7ZM25,3V7H3V3ZM3,9H25V25H3ZM7,29V27H26a1,1,0,0,0,1-1V13h2V29Z"/><path class="cls-1" d="M17,6h1a1,1,0,0,0,0-2H17a1,1,0,0,0,0,2Z"/><path class="cls-1" d="M22,6h1a1,1,0,0,0,0-2H22a1,1,0,0,0,0,2Z"/><path class="cls-2" d="M14,10a6,6,0,0,0-6,6c0,4.86,5.3,7.76,5.53,7.88a1,1,0,0,0,.94,0c.23-.12,5.53-3,5.53-7.88A6,6,0,0,0,14,10Zm.5,7h-1a1,1,0,0,1,0-2h1a1,1,0,0,1,0,2Z"/></svg>