<svg id="OBJECT" xmlns="http://www.w3.org/2000/svg" viewBox="0 0 32 32"><defs><style>.cls-1{fill:#011839;}.cls-2{fill:#7738c8;}</style></defs><path class="cls-1" d="M30,15H17V2a1,1,0,0,0-1-1H4A3,3,0,0,0,1,4V28a3,3,0,0,0,3,3H28a3,3,0,0,0,3-3V16A1,1,0,0,0,30,15ZM15,29H4a1,1,0,0,1-1-1V17H15Zm0-14H3V4A1,1,0,0,1,4,3H15ZM29,28a1,1,0,0,1-1,1H17V17H29Z"/><path class="cls-1" d="M6,10H8v2a1,1,0,0,0,2,0V10h2a1,1,0,0,0,0-2H10V6A1,1,0,0,0,8,6V8H6a1,1,0,0,0,0,2Z"/><path class="cls-1" d="M20.5,24h5a1,1,0,0,0,0-2h-5a1,1,0,0,0,0,2Z"/><path class="cls-1" d="M6.5,24h5a1,1,0,0,0,0-2h-5a1,1,0,0,0,0,2Z"/><path class="cls-1" d="M9.25,25h-.5a1,1,0,0,0,0,2h.5a1,1,0,0,0,0-2Z"/><path class="cls-1" d="M8.75,21h.5a1,1,0,0,0,0-2h-.5a1,1,0,0,0,0,2Z"/><path class="cls-2" d="M29,1H21a2,2,0,0,0-2,2v8a2,2,0,0,0,2,2h8a2,2,0,0,0,2-2V3A2,2,0,0,0,29,1Zm-.79,7.79a1,1,0,0,1,0,1.42,1,1,0,0,1-1.42,0L25,8.41l-1.79,1.8a1,1,0,0,1-1.42,0,1,1,0,0,1,0-1.42L23.59,7l-1.8-1.79a1,1,0,0,1,1.42-1.42L25,5.59l1.79-1.8a1,1,0,1,1,1.42,1.42L26.41,7Z"/></svg>