<svg id="OBJECT" xmlns="http://www.w3.org/2000/svg" viewBox="0 0 32 32"><defs><style>.cls-1{fill:#011839;}.cls-2{fill:#7738c8;}</style></defs><path class="cls-1" d="M15,6a1,1,0,0,0,0-2H13a1,1,0,0,0,0,2Z"/><path class="cls-1" d="M10.5,27a1,1,0,0,0,1,1h5a1,1,0,0,0,0-2h-5A1,1,0,0,0,10.5,27Z"/><path class="cls-1" d="M21,9a1,1,0,0,0,1-1V4a3,3,0,0,0-3-3H9A3,3,0,0,0,6,4V28a3,3,0,0,0,3,3H19a3,3,0,0,0,3-3V24.17a1,1,0,0,0-2,0V28a1,1,0,0,1-1,1H9a1,1,0,0,1-1-1V4A1,1,0,0,1,9,3H19a1,1,0,0,1,1,1V8A1,1,0,0,0,21,9Z"/><path class="cls-2" d="M18,20.5a3,3,0,0,1-1.34-.32L12.5,18.1v1.4a1,1,0,0,0,.59.91l4.5,2a1,1,0,0,0,.82,0l4.5-2a1,1,0,0,0,.59-.91V18.1l-4.16,2.08A3,3,0,0,1,18,20.5Z"/><path class="cls-2" d="M25.45,13.11l-7-3.5a1,1,0,0,0-.9,0l-7,3.5a1,1,0,0,0,0,1.78l7,3.5a1,1,0,0,0,.9,0l7-3.5a1,1,0,0,0,0-1.78Z"/></svg>