<svg id="OBJECT" xmlns="http://www.w3.org/2000/svg" viewBox="0 0 32 32"><defs><style>.cls-1{fill:#011839;}.cls-2{fill:#7738c8;}</style></defs><path class="cls-1" d="M15,6a1,1,0,0,0,0-2H13a1,1,0,0,0,0,2Z"/><path class="cls-1" d="M10.5,27a1,1,0,0,0,1,1h5a1,1,0,0,0,0-2h-5A1,1,0,0,0,10.5,27Z"/><path class="cls-1" d="M21,6a1,1,0,0,0,1-1V4a3,3,0,0,0-3-3H9A3,3,0,0,0,6,4V28a3,3,0,0,0,3,3H19a3,3,0,0,0,3-3V27a1,1,0,0,0-2,0v1a1,1,0,0,1-1,1H9a1,1,0,0,1-1-1V4A1,1,0,0,1,9,3H19a1,1,0,0,1,1,1V5A1,1,0,0,0,21,6Z"/><path class="cls-2" d="M12,10V21a2,2,0,0,0,2,2h2V8H14A2,2,0,0,0,12,10Z"/><path class="cls-2" d="M26,8H18V23h8Zm-3.5,9h-1a1,1,0,0,1-1-1h0a1,1,0,0,1,1-1h1a1,1,0,0,1,1,1h0A1,1,0,0,1,22.5,17Zm0-4h-1a1,1,0,0,1-1-1h0a1,1,0,0,1,1-1h1a1,1,0,0,1,1,1h0A1,1,0,0,1,22.5,13Z"/></svg>