<svg id="OBJECT" xmlns="http://www.w3.org/2000/svg" viewBox="0 0 32 32"><defs><style>.cls-1{fill:#011839;}.cls-2{fill:#7738c8;}</style></defs><path class="cls-1" d="M25,6.5V14a1,1,0,0,0,2,0V6.5a5.5,5.5,0,0,0-11,0V25a4,4,0,0,1-8,0V20a1,1,0,0,0-2,0v5a6,6,0,0,0,12,0V6.5a3.5,3.5,0,0,1,7,0Z"/><path class="cls-1" d="M27,17H25a4,4,0,0,0-4,4v6a4,4,0,0,0,4,4h2a4,4,0,0,0,4-4V21A4,4,0,0,0,27,17Zm2,10a2,2,0,0,1-2,2H25a2,2,0,0,1-2-2V21a2,2,0,0,1,2-2v2a1,1,0,0,0,2,0V19a2,2,0,0,1,2,2Z"/><path class="cls-2" d="M13,16V5a1,1,0,0,0-.29-.71l-3-3A1,1,0,0,0,9,1H2A1,1,0,0,0,1,2V16a1,1,0,0,0,1,1H12A1,1,0,0,0,13,16ZM8.5,13h-3a1,1,0,0,1-1-1h0a1,1,0,0,1,1-1h3a1,1,0,0,1,1,1h0A1,1,0,0,1,8.5,13Zm0-4h-3a1,1,0,0,1-1-1h0a1,1,0,0,1,1-1h3a1,1,0,0,1,1,1h0A1,1,0,0,1,8.5,9Z"/></svg>