<svg id="OBJECT" xmlns="http://www.w3.org/2000/svg" viewBox="0 0 32 32"><defs><style>.cls-1{fill:#011839;}.cls-2{fill:#7738c8;}</style></defs><path class="cls-1" d="M30,6H29a1,1,0,0,0,0,2V21H3V8A1,1,0,0,0,3,6H2A1,1,0,0,0,1,7V26a1,1,0,0,0,1,1h8v2H7a1,1,0,0,0,0,2H25a1,1,0,0,0,0-2H22V27h8a1,1,0,0,0,1-1V7A1,1,0,0,0,30,6ZM20,29H12V27h8ZM3,25V23H29v2Z"/><path class="cls-1" d="M24,19h2a1,1,0,0,0,0-2H24a1,1,0,0,0,0,2Z"/><path class="cls-1" d="M6,19H8a1,1,0,0,0,0-2H6a1,1,0,0,0,0,2Z"/><path class="cls-2" d="M20.81,15H25a1,1,0,0,0,1-1V2a1,1,0,0,0-1-1H19a4,4,0,0,0-2,.56v15l1-.69A5,5,0,0,1,20.81,15ZM20.5,5h2a1,1,0,0,1,1,1h0a1,1,0,0,1-1,1h-2a1,1,0,0,1-1-1h0A1,1,0,0,1,20.5,5Zm0,4h1a1,1,0,0,1,1,1h0a1,1,0,0,1-1,1h-1a1,1,0,0,1-1-1h0A1,1,0,0,1,20.5,9Z"/><path class="cls-2" d="M7,15h4.19a5,5,0,0,1,2.78.84l1,.69v-15A4,4,0,0,0,13,1H7A1,1,0,0,0,6,2V14A1,1,0,0,0,7,15Zm4.5-4h-1a1,1,0,0,1-1-1h0a1,1,0,0,1,1-1h1a1,1,0,0,1,1,1h0A1,1,0,0,1,11.5,11Zm-2-6h2a1,1,0,0,1,1,1h0a1,1,0,0,1-1,1h-2a1,1,0,0,1-1-1h0A1,1,0,0,1,9.5,5Z"/></svg>