<svg id="OBJECT" xmlns="http://www.w3.org/2000/svg" viewBox="0 0 32 32"><defs><style>.cls-1{fill:#011839;}.cls-2{fill:#7738c8;}</style></defs><path class="cls-1" d="M30,1H2A1,1,0,0,0,1,2V6A1,1,0,0,0,2,7V25a1,1,0,0,0,1,1H9.42l-2.7,3.38a1,1,0,0,0,.16,1.4A1,1,0,0,0,7.5,31a1,1,0,0,0,.78-.38l3.52-4.4a.78.78,0,0,0,.12-.22H15v4a1,1,0,0,0,2,0V26h3.08a.78.78,0,0,0,.12.22l3.52,4.4a1,1,0,0,0,.78.38,1,1,0,0,0,.62-.22,1,1,0,0,0,.16-1.4L22.58,26H29a1,1,0,0,0,1-1V7a1,1,0,0,0,1-1V2A1,1,0,0,0,30,1ZM3,3H29V5H3ZM28,24H4V7H28Z"/><path class="cls-2" d="M24.45,12.61l-8-4a1,1,0,0,0-.9,0l-8,4a1,1,0,0,0,0,1.78l8,4a1,1,0,0,0,.9,0l8-4a1,1,0,0,0,0-1.78Z"/><path class="cls-2" d="M16,20.5a3,3,0,0,1-1.34-.32L9.5,17.6v.9a1,1,0,0,0,.52.88l5.5,3a1,1,0,0,0,1,0l5.5-3a1,1,0,0,0,.52-.88v-.9l-5.16,2.58A3,3,0,0,1,16,20.5Z"/></svg>