<svg id="OBJECT" xmlns="http://www.w3.org/2000/svg" viewBox="0 0 32 32"><defs><style>.cls-1{fill:#011839;}.cls-2{fill:#7738c8;}</style></defs><path class="cls-1" d="M30,25h-.5V12a1,1,0,0,0-1-1H26V2a1,1,0,0,0-1-1H7A1,1,0,0,0,6,2v9H3.5a1,1,0,0,0-1,1V25H2a1,1,0,0,0-1,1v4a1,1,0,0,0,1,1H30a1,1,0,0,0,1-1V26A1,1,0,0,0,30,25ZM27.5,13V25H26V13ZM8,3H24V25H8ZM4.5,13H6V25H4.5ZM29,29H3V27H29Z"/><path class="cls-2" d="M20.5,13.5a4.48,4.48,0,0,0-1-2.75,4.46,4.46,0,0,1-7.08,0,4.48,4.48,0,0,0-1,2.75A2.5,2.5,0,0,0,14,16h4A2.5,2.5,0,0,0,20.5,13.5Z"/><circle class="cls-2" cx="16" cy="8" r="2.5"/><rect class="cls-2" x="9.5" y="18.5" width="8" height="4"/><rect class="cls-2" x="19.5" y="18.5" width="3" height="4"/></svg>