<svg id="OBJECT" xmlns="http://www.w3.org/2000/svg" viewBox="0 0 32 32"><defs><style>.cls-1{fill:#011839;}.cls-2{fill:#7738c8;}</style></defs><path class="cls-1" d="M30,20H25V17a3,3,0,0,0-3-3H19V7h2a1,1,0,0,0,1-.76L22.78,3H27a1,1,0,0,0,0-2H5A1,1,0,0,0,5,3H9.22L10,6.24A1,1,0,0,0,11,7h2v7h-.65a1,1,0,0,0,0,2H22a1,1,0,0,1,1,1v3H17.19a1,1,0,1,0,0,2H29v4H17.19a1,1,0,1,0,0,2H30a1,1,0,0,0,1-1V21A1,1,0,0,0,30,20ZM11.28,3h9.44l-.5,2H11.78ZM15,7h2v7H15Z"/><path class="cls-1" d="M26,25a1,1,0,0,0,0-2H25a1,1,0,0,0,0,2Z"/><path class="cls-1" d="M21,25a1,1,0,0,0,0-2H20a1,1,0,0,0,0,2Z"/><path class="cls-2" d="M6.5,24a1.55,1.55,0,0,0,1.55,1.55A1.57,1.57,0,0,0,9.19,25,3.54,3.54,0,0,1,7.9,22.46,1.55,1.55,0,0,0,6.5,24Z"/><path class="cls-2" d="M8,17a7,7,0,1,0,7,7A7,7,0,0,0,8,17Zm3.47,7.92a3.55,3.55,0,1,1-2.1-4.21A1,1,0,0,1,10,21.9a1.68,1.68,0,0,0-.06.4,1.55,1.55,0,0,0,1,1.44A1,1,0,0,1,11.47,24.92Z"/></svg>