<svg id="OBJECT" xmlns="http://www.w3.org/2000/svg" viewBox="0 0 32 32"><defs><style>.cls-1{fill:#011839;}.cls-2{fill:#7738c8;}</style></defs><path class="cls-1" d="M30,1H2A1,1,0,0,0,1,2V30a1,1,0,0,0,1,1H30a1,1,0,0,0,1-1V2A1,1,0,0,0,30,1ZM29,3V7H3V3ZM3,29V9H29V29Z"/><path class="cls-1" d="M21,6h1a1,1,0,0,0,0-2H21a1,1,0,0,0,0,2Z"/><path class="cls-1" d="M26,6h1a1,1,0,0,0,0-2H26a1,1,0,0,0,0,2Z"/><path class="cls-1" d="M9,23.26H6a1,1,0,0,0,0,2H9a1,1,0,1,0,0-2Z"/><path class="cls-1" d="M10,19.26H6a1,1,0,0,0,0,2h4a1,1,0,0,0,0-2Z"/><polygon class="cls-2" points="12.15 15.9 22.1 25.84 23.25 23.93 14.07 14.75 12.15 15.9"/><path class="cls-2" d="M12.4,22a1,1,0,0,0-.28.56l-.37,2.58a1,1,0,0,0,1,1.14h.14l2.58-.37A1,1,0,0,0,16,25.6l1.51-1.5L13.9,20.47Z"/><path class="cls-2" d="M26.71,17.19l-5.9-5.9a1,1,0,0,0-1.41,0,1,1,0,0,0,0,1.42l1.13,1.13-2.27,2.27,3.63,3.63,2.27-2.27,1.13,1.13a1,1,0,0,0,1.42,0A1,1,0,0,0,26.71,17.19Z"/></svg>