<svg id="OBJECT" xmlns="http://www.w3.org/2000/svg" viewBox="0 0 32 32"><defs><style>.cls-1{fill:#011839;}.cls-2{fill:#7738c8;}</style></defs><path class="cls-1" d="M19,7H5a4,4,0,0,0-4,4V21a4,4,0,0,0,4,4v3.59a2.41,2.41,0,0,0,4.12,1.7L14.41,25H19a4,4,0,0,0,4-4V11A4,4,0,0,0,19,7Zm2,14a2,2,0,0,1-2,2H10a1,1,0,0,0,0,2h1.59L7.71,28.88A.43.43,0,0,1,7,28.59V24a1,1,0,0,0-1-1H5a2,2,0,0,1-2-2V11A2,2,0,0,1,5,9H19a2,2,0,0,1,2,2Z"/><path class="cls-1" d="M12.86,11H11.14A3.64,3.64,0,0,0,7.5,14.64v2.72A3.64,3.64,0,0,0,11.14,21h1.72a3.57,3.57,0,0,0,1.75-.47l.18.18a1,1,0,0,0,1.42,0,1,1,0,0,0,0-1.42L16,19.11a3.57,3.57,0,0,0,.47-1.75V14.64A3.64,3.64,0,0,0,12.86,11Zm.35,5.29a1,1,0,0,0-1.42,1.42L13.07,19l-.21,0H11.14A1.65,1.65,0,0,1,9.5,17.36V14.64A1.65,1.65,0,0,1,11.14,13h1.72a1.65,1.65,0,0,1,1.64,1.64v2.72a1.49,1.49,0,0,1,0,.21Z"/><path class="cls-2" d="M27,1H17a4,4,0,0,0-4,4h6a6,6,0,0,1,6,6v9.48a2.1,2.1,0,0,0,2.8-2V15.72A4,4,0,0,0,31,11.8V5A4,4,0,0,0,27,1Zm0,5h-.5a1,1,0,0,1-1-1h0a1,1,0,0,1,1-1H27a1,1,0,0,1,1,1h0A1,1,0,0,1,27,6Z"/></svg>