<svg id="OBJECT" width="24" height="24" xmlns="http://www.w3.org/2000/svg" viewBox="0 0 32 32"><defs><style>.cls-1{fill:#011839;}.cls-2{fill:#7738c8;}</style></defs><path class="cls-1" d="M30,5H28V3.5A2.5,2.5,0,0,0,25.5,1h-1A2.5,2.5,0,0,0,22,3.5V5H10V3.5A2.5,2.5,0,0,0,7.5,1h-1A2.5,2.5,0,0,0,4,3.5V5H2A1,1,0,0,0,1,6V30a1,1,0,0,0,1,1H30a1,1,0,0,0,1-1V6A1,1,0,0,0,30,5ZM24,3.5a.5.5,0,0,1,.5-.5h1a.5.5,0,0,1,.5.5V5H24ZM6,3.5A.5.5,0,0,1,6.5,3h1a.5.5,0,0,1,.5.5V5H6ZM29,7v3H3V7ZM3,29V12H29V29Z"/><path class="cls-2" d="M24.45,17.61l-8-4a1,1,0,0,0-.9,0l-8,4a1,1,0,0,0,0,1.78l8,4a1,1,0,0,0,.9,0l8-4a1,1,0,0,0,0-1.78Z"/><path class="cls-2" d="M16,25.5a3,3,0,0,1-1.34-.32L9.5,22.6v.9a1,1,0,0,0,.52.88l5.5,3a1,1,0,0,0,1,0l5.5-3a1,1,0,0,0,.52-.88v-.9l-5.16,2.58A3,3,0,0,1,16,25.5Z"/></svg>