<svg id="OBJECT" xmlns="http://www.w3.org/2000/svg" viewBox="0 0 32 32"><defs><style>.cls-1{fill:#011839;}.cls-2{fill:#7738c8;}</style></defs><path class="cls-1" d="M30,25h-.5V12a1,1,0,0,0-1-1h-6a1,1,0,0,0,0,2h5V25H4.5V13h5a1,1,0,0,0,0-2h-6a1,1,0,0,0-1,1V25H2a1,1,0,0,0-1,1v4a1,1,0,0,0,1,1H30a1,1,0,0,0,1-1V26A1,1,0,0,0,30,25Zm-1,4H3V27H29Z"/><path class="cls-2" d="M19.92,5l.56-2.8a1,1,0,0,0-.21-.83A1,1,0,0,0,19.5,1h-7a1,1,0,0,0-.77.37,1,1,0,0,0-.21.83L12.08,5Z"/><path class="cls-2" d="M12.5,12.51l-5.33,4.1A3,3,0,0,0,6,19v4H26V19a3,3,0,0,0-1.17-2.37l-5.33-4.1V9h.88a1,1,0,0,0,1-1h0a1,1,0,0,0-1-1H11.62a1,1,0,0,0-1,1h0a1,1,0,0,0,1,1h.88Zm1,8.49h-1a1,1,0,0,1-1-1h0a1,1,0,0,1,1-1h1a1,1,0,0,1,1,1h0A1,1,0,0,1,13.5,21Zm7-1h0a1,1,0,0,1-1,1h-1a1,1,0,0,1-1-1h0a1,1,0,0,1,1-1h1A1,1,0,0,1,20.5,20Z"/></svg>