<svg id="OBJECT" xmlns="http://www.w3.org/2000/svg" viewBox="0 0 32 32"><defs><style>.cls-1{fill:#011839;}.cls-2{fill:#7738c8;}</style></defs><path class="cls-1" d="M30,25h-.5V12a1,1,0,0,0-1-1H28a1,1,0,0,0-.5,1.87V25H4.5V12.87A1,1,0,0,0,4,11H3.5a1,1,0,0,0-1,1V25H2a1,1,0,0,0-1,1v4a1,1,0,0,0,1,1H30a1,1,0,0,0,1-1V26A1,1,0,0,0,30,25Zm-1,4H3V27H29Z"/><polygon class="cls-2" points="15.22 12.8 16.78 12.8 16 11.24 15.22 12.8"/><polygon class="cls-2" points="20 1.59 20 6 24.41 6 20 1.59"/><path class="cls-2" d="M25,8H19a1,1,0,0,1-1-1V1H8A1,1,0,0,0,7,2V23H25ZM12.5,22H12a1,1,0,0,1-1-1h0a1,1,0,0,1,1-1h.5a1,1,0,0,1,1,1h0A1,1,0,0,1,12.5,22ZM20,22H16a1,1,0,0,1-1-1h0a1,1,0,0,1,1-1h4a1,1,0,0,1,1,1h0A1,1,0,0,1,20,22Zm-.89-4.55L17.78,14.8H14.22l-1.33,2.65a1,1,0,0,1-1.34.44h0a1,1,0,0,1-.44-1.34L13,12.87V12.8h0l2.13-4.25a1,1,0,0,1,1.78,0L19,12.8h0v.07l1.84,3.68a1,1,0,0,1-.44,1.34h0A1,1,0,0,1,19.11,17.45Z"/></svg>