<svg id="OBJECT" xmlns="http://www.w3.org/2000/svg" viewBox="0 0 32 32"><defs><style>.cls-1{fill:#011839;}.cls-2{fill:#7738c8;}</style></defs><path class="cls-1" d="M30,25h-.5V13a1,1,0,0,0-1-1H24.9a1,1,0,0,0,0,2h2.6V25H25V23a5,5,0,0,0-1.65-3.71A1,1,0,0,0,22,20.77,3,3,0,0,1,23,23v2H9V23a3,3,0,0,1,1-2.23,1,1,0,1,0-1.34-1.48A5,5,0,0,0,7,23v2H4.5V14H7.1a1,1,0,1,0,0-2H3.5a1,1,0,0,0-1,1V25H2a1,1,0,0,0-1,1v4a1,1,0,0,0,1,1H30a1,1,0,0,0,1-1V26A1,1,0,0,0,30,25Zm-1,4H3V27H29Z"/><path class="cls-1" d="M12.5,23.5h1a1,1,0,0,0,0-2h-1a1,1,0,0,0,0,2Z"/><path class="cls-1" d="M18.5,23.5h1a1,1,0,0,0,0-2h-1a1,1,0,0,0,0,2Z"/><path class="cls-2" d="M17.54,15.57A3,3,0,0,1,16,16a3,3,0,0,1-1.55-.43L10.1,13a5.91,5.91,0,0,0-.1,1,6,6,0,0,0,12,0,5.91,5.91,0,0,0-.1-1Z"/><path class="cls-2" d="M16,12a3,3,0,0,1-1.21-.26L10,9.65V10a1,1,0,0,0,.49.86l5,3a1,1,0,0,0,1,0l5-3A1,1,0,0,0,22,10V9.65l-4.8,2.1A3,3,0,0,1,16,12Z"/><path class="cls-2" d="M24.4,4.58l-8-3.5a1,1,0,0,0-.8,0l-8,3.5a1,1,0,0,0,0,1.84l8,3.5a1,1,0,0,0,.8,0L23,7V9a1,1,0,0,0,1,1h0a1,1,0,0,0,1-1V5.45A1,1,0,0,0,24.4,4.58Z"/></svg>