<svg id="OBJECT" xmlns="http://www.w3.org/2000/svg" viewBox="0 0 32 32"><defs><style>.cls-1{fill:#011839;}.cls-2{fill:#7738c8;}</style></defs><path class="cls-1" d="M26,1H6A1,1,0,0,0,5,2V17a1,1,0,0,0,1,1H26a1,1,0,0,0,1-1V2A1,1,0,0,0,26,1ZM15,10a1,1,0,1,1,1,1A1,1,0,0,1,15,10Zm1,3a2.5,2.5,0,0,1,2.5,2.5V16h-5v-.5A2.5,2.5,0,0,1,16,13Zm9,3H20.5v-.5a4.48,4.48,0,0,0-2.06-3.77A3,3,0,0,0,19,10a3,3,0,0,0-6,0,3,3,0,0,0,.56,1.73A4.48,4.48,0,0,0,11.5,15.5V16H7V3H25Z"/><path class="cls-1" d="M21,6h2a1,1,0,0,0,0-2H21a1,1,0,0,0,0,2Z"/><path class="cls-1" d="M19.5,27h-7a1,1,0,0,0,0,2h7a1,1,0,0,0,0-2Z"/><path class="cls-2" d="M30,25.75a4.46,4.46,0,0,1-7.08,0,4.48,4.48,0,0,0-1,2.75A2.5,2.5,0,0,0,24.5,31h4A2.5,2.5,0,0,0,31,28.5,4.48,4.48,0,0,0,30,25.75Z"/><circle class="cls-2" cx="26.5" cy="23" r="2.5"/><path class="cls-2" d="M5.5,27.5A4.49,4.49,0,0,1,2,25.75,4.48,4.48,0,0,0,1,28.5,2.5,2.5,0,0,0,3.5,31h4A2.5,2.5,0,0,0,10,28.5a4.48,4.48,0,0,0-1-2.75A4.49,4.49,0,0,1,5.5,27.5Z"/><circle class="cls-2" cx="5.5" cy="23" r="2.5"/></svg>