<svg id="OBJECT" xmlns="http://www.w3.org/2000/svg" viewBox="0 0 32 32"><defs><style>.cls-1{fill:#011839;}.cls-2{fill:#7738c8;}</style></defs><path class="cls-1" d="M30,1H2A1,1,0,0,0,1,2V30a1,1,0,0,0,1,1H30a1,1,0,0,0,1-1V2A1,1,0,0,0,30,1ZM29,3V7H3V3ZM12,15a1,1,0,0,1-1-1V9H21v5a1,1,0,0,1-1,1ZM3,9H9v5a3,3,0,0,0,3,3h3V29H3ZM17,29V17h3a3,3,0,0,0,3-3V9h6V29Z"/><path class="cls-1" d="M21,6h1a1,1,0,0,0,0-2H21a1,1,0,0,0,0,2Z"/><path class="cls-1" d="M26,6h1a1,1,0,0,0,0-2H26a1,1,0,0,0,0,2Z"/><path class="cls-1" d="M18,11H14a1,1,0,0,0,0,2h4a1,1,0,0,0,0-2Z"/><path class="cls-2" d="M9,24.5a4.51,4.51,0,0,1-3.51-1.71,4.8,4.8,0,0,0-1,2.91V27h9V25.5a4.42,4.42,0,0,0-1-2.75A4.5,4.5,0,0,1,9,24.5Z"/><circle class="cls-2" cx="9" cy="20" r="2.5"/><path class="cls-2" d="M26.54,22.75a4.46,4.46,0,0,1-7,0,4.8,4.8,0,0,0-1,2.91V27h9V25.5A4.42,4.42,0,0,0,26.54,22.75Z"/><circle class="cls-2" cx="23" cy="20" r="2.5"/></svg>