<svg id="OBJECT" xmlns="http://www.w3.org/2000/svg" viewBox="0 0 32 32"><defs><style>.cls-1{fill:#011839;}.cls-2{fill:#7738c8;}</style></defs><path class="cls-1" d="M30,1H2A1,1,0,0,0,1,2V22a1,1,0,0,0,1,1H30a1,1,0,0,0,1-1V2A1,1,0,0,0,30,1ZM29,3V7H3V3ZM3,21V9H29V21Z"/><path class="cls-1" d="M21,6h1a1,1,0,0,0,0-2H21a1,1,0,0,0,0,2Z"/><path class="cls-1" d="M26,6h1a1,1,0,0,0,0-2H26a1,1,0,0,0,0,2Z"/><path class="cls-1" d="M30,26.5H11V25a1,1,0,0,0-1-1H7a1,1,0,0,0-1,1v1.5H2a1,1,0,0,0,0,2H6V30a1,1,0,0,0,1,1h3a1,1,0,0,0,1-1V28.5H30a1,1,0,0,0,0-2ZM9,29H8V26H9Z"/><path class="cls-2" d="M16,17.5a4.51,4.51,0,0,1-3.51-1.71,4.8,4.8,0,0,0-1,2.91V19h9v-.5a4.42,4.42,0,0,0-1-2.75A4.5,4.5,0,0,1,16,17.5Z"/><circle class="cls-2" cx="16" cy="13" r="2.5"/><path class="cls-2" d="M26,11H23a1,1,0,0,0,0,2h3a1,1,0,0,0,0-2Z"/><path class="cls-2" d="M9,11H6a1,1,0,0,0,0,2H9a1,1,0,0,0,0-2Z"/></svg>