<svg id="OBJECT" xmlns="http://www.w3.org/2000/svg" viewBox="0 0 32 32"><defs><style>.cls-1{fill:#011839;}.cls-2{fill:#7738c8;}</style></defs><path class="cls-1" d="M30,25h-.5V12a1,1,0,0,0-2,0V25H4.5V12a1,1,0,0,0-2,0V25H2a1,1,0,0,0-1,1v4a1,1,0,0,0,1,1H30a1,1,0,0,0,1-1V26A1,1,0,0,0,30,25Zm-1,4H3V27H29Z"/><path class="cls-1" d="M8.29,22h13v.5a1,1,0,0,0,2,0V22h1a1,1,0,0,0,0-2h-1v-.5a1,1,0,0,0-2,0V20h-13a1,1,0,1,0,0,2Z"/><path class="cls-2" d="M9,17H23a3,3,0,0,0,3-3V4a3,3,0,0,0-3-3H9A3,3,0,0,0,6,4V14A3,3,0,0,0,9,17ZM18.5,6h0a1,1,0,0,1,1,1v4a1,1,0,0,1-1,1h0a1,1,0,0,1-1-1V7A1,1,0,0,1,18.5,6Zm-5,0h0a1,1,0,0,1,1,1v4a1,1,0,0,1-1,1h0a1,1,0,0,1-1-1V7A1,1,0,0,1,13.5,6Z"/></svg>