<svg id="OBJECT" xmlns="http://www.w3.org/2000/svg" viewBox="0 0 32 32"><defs><style>.cls-1{fill:#011839;}.cls-2{fill:#7738c8;}</style></defs><path class="cls-1" d="M30.53,4.5C26.93,2.27,21.64,1,16,1S5.07,2.28,1.47,4.5A1,1,0,0,0,1,5.35v12.3a1,1,0,0,0,.47.85A26.51,26.51,0,0,0,13,21.86V25H10a1,1,0,0,0-1,.76L8.22,29H4a1,1,0,0,0,0,2H28a1,1,0,0,0,0-2H23.78L23,25.76A1,1,0,0,0,22,25H19V21.86A26.51,26.51,0,0,0,30.53,18.5a1,1,0,0,0,.47-.85V5.35A1,1,0,0,0,30.53,4.5ZM21.72,29H10.28l.5-2H21.22ZM17,25H15V22c.33,0,.66,0,1,0s.67,0,1,0Zm12-7.92A27.19,27.19,0,0,1,16,20,27.19,27.19,0,0,1,3,17.08V5.92C6.27,4.06,11,3,16,3A27.19,27.19,0,0,1,29,5.92Z"/><path class="cls-2" d="M16,4.5a7,7,0,1,0,7,7A7,7,0,0,0,16,4.5Zm3.47,7.92a3.55,3.55,0,1,1-2.1-4.21A1,1,0,0,1,18,9.4a1.68,1.68,0,0,0-.06.4,1.55,1.55,0,0,0,1,1.44A1,1,0,0,1,19.47,12.42Z"/><path class="cls-2" d="M14.5,11.5a1.55,1.55,0,0,0,1.55,1.55,1.57,1.57,0,0,0,1.14-.51A3.54,3.54,0,0,1,15.9,10,1.55,1.55,0,0,0,14.5,11.5Z"/><path class="cls-2" d="M26,9.5a1,1,0,0,0-1,1v2a1,1,0,0,0,2,0v-2A1,1,0,0,0,26,9.5Z"/><path class="cls-2" d="M6,9.5a1,1,0,0,0-1,1v2a1,1,0,0,0,2,0v-2A1,1,0,0,0,6,9.5Z"/></svg>