<svg id="OBJECT" xmlns="http://www.w3.org/2000/svg" viewBox="0 0 32 32"><defs><style>.cls-1{fill:#011839;}.cls-2{fill:#7738c8;}</style></defs><path class="cls-1" d="M30,5H27V2a1,1,0,0,0-1-1H2A1,1,0,0,0,1,2V26a1,1,0,0,0,1,1H5v3a1,1,0,0,0,1,1H30a1,1,0,0,0,1-1V6A1,1,0,0,0,30,5ZM29,7v4H27V7ZM25,3V7H3V3ZM3,9H25V25H3ZM7,29V27H26a1,1,0,0,0,1-1V13h2V29Z"/><path class="cls-1" d="M17,6h1a1,1,0,0,0,0-2H17a1,1,0,0,0,0,2Z"/><path class="cls-1" d="M22,6h1a1,1,0,0,0,0-2H22a1,1,0,0,0,0,2Z"/><path class="cls-2" d="M14,10c-.54,0-1.79,2.1-2,6H16C15.79,12.1,14.54,10,14,10Z"/><path class="cls-2" d="M12,18c.18,3.9,1.43,6,2,6s1.79-2.1,2-6Z"/><path class="cls-2" d="M18,16h3a7,7,0,0,0-4-5.36A16.09,16.09,0,0,1,18,16Z"/><path class="cls-2" d="M10,18H7.08a7,7,0,0,0,4,5.36A16.09,16.09,0,0,1,10,18Z"/><path class="cls-2" d="M18,18a16.09,16.09,0,0,1-1.07,5.36,7,7,0,0,0,4-5.36Z"/><path class="cls-2" d="M10,16a16.09,16.09,0,0,1,1.07-5.36,7,7,0,0,0-4,5.36Z"/></svg>